<svg width="20" height="20" viewBox="0 0 20 20" fill="none" xmlns="http://www.w3.org/2000/svg">
<g clip-path="url(#clip0_226_149)">
<path fill-rule="evenodd" clip-rule="evenodd" d="M13 8.5C13 10.9853 10.9853 13 8.5 13C6.01472 13 4 10.9853 4 8.5C4 6.01472 6.01472 4 8.5 4C10.9853 4 13 6.01472 13 8.5ZM12.5627 14.8054C11.392 15.5613 9.99723 16 8.5 16C4.35786 16 1 12.6421 1 8.5C1 4.35786 4.35786 1 8.5 1C12.6421 1 16 4.35786 16 8.5C16 10.06 15.5237 11.5087 14.7087 12.7087L20 18L17.8787 20.1213L12.5627 14.8054Z" fill="white"/>
</g>
<defs>
<clipPath id="clip0_226_149">
<rect width="20" height="20" fill="white"/>
</clipPath>
</defs>
</svg>
